<svg width="395" height="395" viewBox="0 0 395 395" fill="none" xmlns="http://www.w3.org/2000/svg">
<g clip-path="url(#clip0)">
<path d="M-465 -36.5L3 431.5" stroke="#E0E0E0" stroke-width="10"/>
<path d="M-425 -36.5L43 431.5" stroke="#E0E0E0" stroke-width="10"/>
<path d="M-385 -36.5L83 431.5" stroke="#E0E0E0" stroke-width="10"/>
<path d="M-345 -36.5L123 431.5" stroke="#E0E0E0" stroke-width="10"/>
<path d="M-305 -36.5L163 431.5" stroke="#E0E0E0" stroke-width="10"/>
<path d="M-265 -36.5L203 431.5" stroke="#E0E0E0" stroke-width="10"/>
<path d="M-225 -36.5L243 431.5" stroke="#E0E0E0" stroke-width="10"/>
<path d="M-185 -36.5L283 431.5" stroke="#E0E0E0" stroke-width="10"/>
<path d="M-145 -36.5L323 431.5" stroke="#E0E0E0" stroke-width="10"/>
<path d="M-105 -36.5L363 431.5" stroke="#E0E0E0" stroke-width="10"/>
<path d="M-65 -36.5L403 431.5" stroke="#E0E0E0" stroke-width="10"/>
<path d="M-25 -36.5L443 431.5" stroke="#E0E0E0" stroke-width="10"/>
<path d="M15 -36.5L483 431.5" stroke="#E0E0E0" stroke-width="10"/>
<path d="M55 -36.5L523 431.5" stroke="#E0E0E0" stroke-width="10"/>
<path d="M95 -36.5L563 431.5" stroke="#E0E0E0" stroke-width="10"/>
<path d="M135 -36.5L603 431.5" stroke="#E0E0E0" stroke-width="10"/>
<path d="M175 -36.5L643 431.5" stroke="#E0E0E0" stroke-width="10"/>
<path d="M215 -36.5L683 431.5" stroke="#E0E0E0" stroke-width="10"/>
<path d="M255 -36.5L723 431.5" stroke="#E0E0E0" stroke-width="10"/>
<path d="M295 -36.5L763 431.5" stroke="#E0E0E0" stroke-width="10"/>
<path d="M335 -36.5L803 431.5" stroke="#E0E0E0" stroke-width="10"/>
<path d="M375 -36.5L843 431.5" stroke="#E0E0E0" stroke-width="10"/>
</g>
<defs>
<clipPath id="clip0">
<rect width="395" height="395" fill="white"/>
</clipPath>
</defs>
</svg>
