<svg width="395" height="395" fill="none" xmlns="http://www.w3.org/2000/svg"><g clip-path="url(#clip0)"><path d="M-465-36.5l468 468m-428-468l468 468m-428-468l468 468m-428-468l468 468m-428-468l468 468m-428-468l468 468m-428-468l468 468m-428-468l468 468m-428-468l468 468m-428-468l468 468m-428-468l468 468m-428-468l468 468M15-36.5l468 468M55-36.5l468 468M95-36.5l468 468m-428-468l468 468m-428-468l468 468m-428-468l468 468m-428-468l468 468m-428-468l468 468m-428-468l468 468m-428-468l468 468" stroke="#303030" stroke-width="10"/></g><defs><clipPath id="clip0"><path fill="#fff" d="M0 0H395V395H0z"/></clipPath></defs></svg>