<svg width="375" height="395" viewBox="0 0 375 395" fill="none" xmlns="http://www.w3.org/2000/svg">
<path d="M5 10C7.76142 10 10 7.76142 10 5C10 2.23858 7.76142 0 5 0C2.23858 0 0 2.23858 0 5C0 7.76142 2.23858 10 5 10Z" fill="#303030"/>
<path d="M5 45C7.76142 45 10 42.7614 10 40C10 37.2386 7.76142 35 5 35C2.23858 35 0 37.2386 0 40C0 42.7614 2.23858 45 5 45Z" fill="#303030"/>
<path d="M5 80C7.76142 80 10 77.7614 10 75C10 72.2386 7.76142 70 5 70C2.23858 70 0 72.2386 0 75C0 77.7614 2.23858 80 5 80Z" fill="#303030"/>
<path d="M5 115C7.76142 115 10 112.761 10 110C10 107.239 7.76142 105 5 105C2.23858 105 0 107.239 0 110C0 112.761 2.23858 115 5 115Z" fill="#303030"/>
<path d="M5 150C7.76142 150 10 147.761 10 145C10 142.239 7.76142 140 5 140C2.23858 140 0 142.239 0 145C0 147.761 2.23858 150 5 150Z" fill="#303030"/>
<path d="M5 185C7.76142 185 10 182.761 10 180C10 177.239 7.76142 175 5 175C2.23858 175 0 177.239 0 180C0 182.761 2.23858 185 5 185Z" fill="#303030"/>
<path d="M5 220C7.76142 220 10 217.761 10 215C10 212.239 7.76142 210 5 210C2.23858 210 0 212.239 0 215C0 217.761 2.23858 220 5 220Z" fill="#303030"/>
<path d="M5 255C7.76142 255 10 252.761 10 250C10 247.239 7.76142 245 5 245C2.23858 245 0 247.239 0 250C0 252.761 2.23858 255 5 255Z" fill="#303030"/>
<path d="M5 290C7.76142 290 10 287.761 10 285C10 282.239 7.76142 280 5 280C2.23858 280 0 282.239 0 285C0 287.761 2.23858 290 5 290Z" fill="#303030"/>
<path d="M5 325C7.76142 325 10 322.761 10 320C10 317.239 7.76142 315 5 315C2.23858 315 0 317.239 0 320C0 322.761 2.23858 325 5 325Z" fill="#303030"/>
<path d="M5 360C7.76142 360 10 357.761 10 355C10 352.239 7.76142 350 5 350C2.23858 350 0 352.239 0 355C0 357.761 2.23858 360 5 360Z" fill="#303030"/>
<path d="M5 395C7.76142 395 10 392.761 10 390C10 387.239 7.76142 385 5 385C2.23858 385 0 387.239 0 390C0 392.761 2.23858 395 5 395Z" fill="#303030"/>
<path d="M40 10C42.7614 10 45 7.76142 45 5C45 2.23858 42.7614 0 40 0C37.2386 0 35 2.23858 35 5C35 7.76142 37.2386 10 40 10Z" fill="#303030"/>
<path d="M40 45C42.7614 45 45 42.7614 45 40C45 37.2386 42.7614 35 40 35C37.2386 35 35 37.2386 35 40C35 42.7614 37.2386 45 40 45Z" fill="#303030"/>
<path d="M40 80C42.7614 80 45 77.7614 45 75C45 72.2386 42.7614 70 40 70C37.2386 70 35 72.2386 35 75C35 77.7614 37.2386 80 40 80Z" fill="#303030"/>
<path d="M40 115C42.7614 115 45 112.761 45 110C45 107.239 42.7614 105 40 105C37.2386 105 35 107.239 35 110C35 112.761 37.2386 115 40 115Z" fill="#303030"/>
<path d="M40 150C42.7614 150 45 147.761 45 145C45 142.239 42.7614 140 40 140C37.2386 140 35 142.239 35 145C35 147.761 37.2386 150 40 150Z" fill="#303030"/>
<path d="M40 185C42.7614 185 45 182.761 45 180C45 177.239 42.7614 175 40 175C37.2386 175 35 177.239 35 180C35 182.761 37.2386 185 40 185Z" fill="#303030"/>
<path d="M40 220C42.7614 220 45 217.761 45 215C45 212.239 42.7614 210 40 210C37.2386 210 35 212.239 35 215C35 217.761 37.2386 220 40 220Z" fill="#303030"/>
<path d="M40 255C42.7614 255 45 252.761 45 250C45 247.239 42.7614 245 40 245C37.2386 245 35 247.239 35 250C35 252.761 37.2386 255 40 255Z" fill="#303030"/>
<path d="M40 290C42.7614 290 45 287.761 45 285C45 282.239 42.7614 280 40 280C37.2386 280 35 282.239 35 285C35 287.761 37.2386 290 40 290Z" fill="#303030"/>
<path d="M40 325C42.7614 325 45 322.761 45 320C45 317.239 42.7614 315 40 315C37.2386 315 35 317.239 35 320C35 322.761 37.2386 325 40 325Z" fill="#303030"/>
<path d="M40 360C42.7614 360 45 357.761 45 355C45 352.239 42.7614 350 40 350C37.2386 350 35 352.239 35 355C35 357.761 37.2386 360 40 360Z" fill="#303030"/>
<path d="M40 395C42.7614 395 45 392.761 45 390C45 387.239 42.7614 385 40 385C37.2386 385 35 387.239 35 390C35 392.761 37.2386 395 40 395Z" fill="#303030"/>
<path d="M75 10C77.7614 10 80 7.76142 80 5C80 2.23858 77.7614 0 75 0C72.2386 0 70 2.23858 70 5C70 7.76142 72.2386 10 75 10Z" fill="#303030"/>
<path d="M75 45C77.7614 45 80 42.7614 80 40C80 37.2386 77.7614 35 75 35C72.2386 35 70 37.2386 70 40C70 42.7614 72.2386 45 75 45Z" fill="#303030"/>
<path d="M75 80C77.7614 80 80 77.7614 80 75C80 72.2386 77.7614 70 75 70C72.2386 70 70 72.2386 70 75C70 77.7614 72.2386 80 75 80Z" fill="#303030"/>
<path d="M75 115C77.7614 115 80 112.761 80 110C80 107.239 77.7614 105 75 105C72.2386 105 70 107.239 70 110C70 112.761 72.2386 115 75 115Z" fill="#303030"/>
<path d="M75 150C77.7614 150 80 147.761 80 145C80 142.239 77.7614 140 75 140C72.2386 140 70 142.239 70 145C70 147.761 72.2386 150 75 150Z" fill="#303030"/>
<path d="M75 185C77.7614 185 80 182.761 80 180C80 177.239 77.7614 175 75 175C72.2386 175 70 177.239 70 180C70 182.761 72.2386 185 75 185Z" fill="#303030"/>
<path d="M75 220C77.7614 220 80 217.761 80 215C80 212.239 77.7614 210 75 210C72.2386 210 70 212.239 70 215C70 217.761 72.2386 220 75 220Z" fill="#303030"/>
<path d="M75 255C77.7614 255 80 252.761 80 250C80 247.239 77.7614 245 75 245C72.2386 245 70 247.239 70 250C70 252.761 72.2386 255 75 255Z" fill="#303030"/>
<path d="M75 290C77.7614 290 80 287.761 80 285C80 282.239 77.7614 280 75 280C72.2386 280 70 282.239 70 285C70 287.761 72.2386 290 75 290Z" fill="#303030"/>
<path d="M75 325C77.7614 325 80 322.761 80 320C80 317.239 77.7614 315 75 315C72.2386 315 70 317.239 70 320C70 322.761 72.2386 325 75 325Z" fill="#303030"/>
<path d="M75 360C77.7614 360 80 357.761 80 355C80 352.239 77.7614 350 75 350C72.2386 350 70 352.239 70 355C70 357.761 72.2386 360 75 360Z" fill="#303030"/>
<path d="M75 395C77.7614 395 80 392.761 80 390C80 387.239 77.7614 385 75 385C72.2386 385 70 387.239 70 390C70 392.761 72.2386 395 75 395Z" fill="#303030"/>
<path d="M110 10C112.761 10 115 7.76142 115 5C115 2.23858 112.761 0 110 0C107.239 0 105 2.23858 105 5C105 7.76142 107.239 10 110 10Z" fill="#303030"/>
<path d="M110 45C112.761 45 115 42.7614 115 40C115 37.2386 112.761 35 110 35C107.239 35 105 37.2386 105 40C105 42.7614 107.239 45 110 45Z" fill="#303030"/>
<path d="M110 80C112.761 80 115 77.7614 115 75C115 72.2386 112.761 70 110 70C107.239 70 105 72.2386 105 75C105 77.7614 107.239 80 110 80Z" fill="#303030"/>
<path d="M110 115C112.761 115 115 112.761 115 110C115 107.239 112.761 105 110 105C107.239 105 105 107.239 105 110C105 112.761 107.239 115 110 115Z" fill="#303030"/>
<path d="M110 150C112.761 150 115 147.761 115 145C115 142.239 112.761 140 110 140C107.239 140 105 142.239 105 145C105 147.761 107.239 150 110 150Z" fill="#303030"/>
<path d="M110 185C112.761 185 115 182.761 115 180C115 177.239 112.761 175 110 175C107.239 175 105 177.239 105 180C105 182.761 107.239 185 110 185Z" fill="#303030"/>
<path d="M110 220C112.761 220 115 217.761 115 215C115 212.239 112.761 210 110 210C107.239 210 105 212.239 105 215C105 217.761 107.239 220 110 220Z" fill="#303030"/>
<path d="M110 255C112.761 255 115 252.761 115 250C115 247.239 112.761 245 110 245C107.239 245 105 247.239 105 250C105 252.761 107.239 255 110 255Z" fill="#303030"/>
<path d="M110 290C112.761 290 115 287.761 115 285C115 282.239 112.761 280 110 280C107.239 280 105 282.239 105 285C105 287.761 107.239 290 110 290Z" fill="#303030"/>
<path d="M110 325C112.761 325 115 322.761 115 320C115 317.239 112.761 315 110 315C107.239 315 105 317.239 105 320C105 322.761 107.239 325 110 325Z" fill="#303030"/>
<path d="M110 360C112.761 360 115 357.761 115 355C115 352.239 112.761 350 110 350C107.239 350 105 352.239 105 355C105 357.761 107.239 360 110 360Z" fill="#303030"/>
<path d="M110 395C112.761 395 115 392.761 115 390C115 387.239 112.761 385 110 385C107.239 385 105 387.239 105 390C105 392.761 107.239 395 110 395Z" fill="#303030"/>
<path d="M145 10C147.761 10 150 7.76142 150 5C150 2.23858 147.761 0 145 0C142.239 0 140 2.23858 140 5C140 7.76142 142.239 10 145 10Z" fill="#303030"/>
<path d="M145 45C147.761 45 150 42.7614 150 40C150 37.2386 147.761 35 145 35C142.239 35 140 37.2386 140 40C140 42.7614 142.239 45 145 45Z" fill="#303030"/>
<path d="M145 80C147.761 80 150 77.7614 150 75C150 72.2386 147.761 70 145 70C142.239 70 140 72.2386 140 75C140 77.7614 142.239 80 145 80Z" fill="#303030"/>
<path d="M145 115C147.761 115 150 112.761 150 110C150 107.239 147.761 105 145 105C142.239 105 140 107.239 140 110C140 112.761 142.239 115 145 115Z" fill="#303030"/>
<path d="M145 150C147.761 150 150 147.761 150 145C150 142.239 147.761 140 145 140C142.239 140 140 142.239 140 145C140 147.761 142.239 150 145 150Z" fill="#303030"/>
<path d="M145 185C147.761 185 150 182.761 150 180C150 177.239 147.761 175 145 175C142.239 175 140 177.239 140 180C140 182.761 142.239 185 145 185Z" fill="#303030"/>
<path d="M145 220C147.761 220 150 217.761 150 215C150 212.239 147.761 210 145 210C142.239 210 140 212.239 140 215C140 217.761 142.239 220 145 220Z" fill="#303030"/>
<path d="M145 255C147.761 255 150 252.761 150 250C150 247.239 147.761 245 145 245C142.239 245 140 247.239 140 250C140 252.761 142.239 255 145 255Z" fill="#303030"/>
<path d="M145 290C147.761 290 150 287.761 150 285C150 282.239 147.761 280 145 280C142.239 280 140 282.239 140 285C140 287.761 142.239 290 145 290Z" fill="#303030"/>
<path d="M145 325C147.761 325 150 322.761 150 320C150 317.239 147.761 315 145 315C142.239 315 140 317.239 140 320C140 322.761 142.239 325 145 325Z" fill="#303030"/>
<path d="M145 360C147.761 360 150 357.761 150 355C150 352.239 147.761 350 145 350C142.239 350 140 352.239 140 355C140 357.761 142.239 360 145 360Z" fill="#303030"/>
<path d="M145 395C147.761 395 150 392.761 150 390C150 387.239 147.761 385 145 385C142.239 385 140 387.239 140 390C140 392.761 142.239 395 145 395Z" fill="#303030"/>
<path d="M180 10C182.761 10 185 7.76142 185 5C185 2.23858 182.761 0 180 0C177.239 0 175 2.23858 175 5C175 7.76142 177.239 10 180 10Z" fill="#303030"/>
<path d="M180 45C182.761 45 185 42.7614 185 40C185 37.2386 182.761 35 180 35C177.239 35 175 37.2386 175 40C175 42.7614 177.239 45 180 45Z" fill="#303030"/>
<path d="M180 80C182.761 80 185 77.7614 185 75C185 72.2386 182.761 70 180 70C177.239 70 175 72.2386 175 75C175 77.7614 177.239 80 180 80Z" fill="#303030"/>
<path d="M180 115C182.761 115 185 112.761 185 110C185 107.239 182.761 105 180 105C177.239 105 175 107.239 175 110C175 112.761 177.239 115 180 115Z" fill="#303030"/>
<path d="M180 150C182.761 150 185 147.761 185 145C185 142.239 182.761 140 180 140C177.239 140 175 142.239 175 145C175 147.761 177.239 150 180 150Z" fill="#303030"/>
<path d="M180 185C182.761 185 185 182.761 185 180C185 177.239 182.761 175 180 175C177.239 175 175 177.239 175 180C175 182.761 177.239 185 180 185Z" fill="#303030"/>
<path d="M180 220C182.761 220 185 217.761 185 215C185 212.239 182.761 210 180 210C177.239 210 175 212.239 175 215C175 217.761 177.239 220 180 220Z" fill="#303030"/>
<path d="M180 255C182.761 255 185 252.761 185 250C185 247.239 182.761 245 180 245C177.239 245 175 247.239 175 250C175 252.761 177.239 255 180 255Z" fill="#303030"/>
<path d="M180 290C182.761 290 185 287.761 185 285C185 282.239 182.761 280 180 280C177.239 280 175 282.239 175 285C175 287.761 177.239 290 180 290Z" fill="#303030"/>
<path d="M180 325C182.761 325 185 322.761 185 320C185 317.239 182.761 315 180 315C177.239 315 175 317.239 175 320C175 322.761 177.239 325 180 325Z" fill="#303030"/>
<path d="M180 360C182.761 360 185 357.761 185 355C185 352.239 182.761 350 180 350C177.239 350 175 352.239 175 355C175 357.761 177.239 360 180 360Z" fill="#303030"/>
<path d="M180 395C182.761 395 185 392.761 185 390C185 387.239 182.761 385 180 385C177.239 385 175 387.239 175 390C175 392.761 177.239 395 180 395Z" fill="#303030"/>
<path d="M215 10C217.761 10 220 7.76142 220 5C220 2.23858 217.761 0 215 0C212.239 0 210 2.23858 210 5C210 7.76142 212.239 10 215 10Z" fill="#303030"/>
<path d="M215 45C217.761 45 220 42.7614 220 40C220 37.2386 217.761 35 215 35C212.239 35 210 37.2386 210 40C210 42.7614 212.239 45 215 45Z" fill="#303030"/>
<path d="M215 80C217.761 80 220 77.7614 220 75C220 72.2386 217.761 70 215 70C212.239 70 210 72.2386 210 75C210 77.7614 212.239 80 215 80Z" fill="#303030"/>
<path d="M215 115C217.761 115 220 112.761 220 110C220 107.239 217.761 105 215 105C212.239 105 210 107.239 210 110C210 112.761 212.239 115 215 115Z" fill="#303030"/>
<path d="M215 150C217.761 150 220 147.761 220 145C220 142.239 217.761 140 215 140C212.239 140 210 142.239 210 145C210 147.761 212.239 150 215 150Z" fill="#303030"/>
<path d="M215 185C217.761 185 220 182.761 220 180C220 177.239 217.761 175 215 175C212.239 175 210 177.239 210 180C210 182.761 212.239 185 215 185Z" fill="#303030"/>
<path d="M215 220C217.761 220 220 217.761 220 215C220 212.239 217.761 210 215 210C212.239 210 210 212.239 210 215C210 217.761 212.239 220 215 220Z" fill="#303030"/>
<path d="M215 255C217.761 255 220 252.761 220 250C220 247.239 217.761 245 215 245C212.239 245 210 247.239 210 250C210 252.761 212.239 255 215 255Z" fill="#303030"/>
<path d="M215 290C217.761 290 220 287.761 220 285C220 282.239 217.761 280 215 280C212.239 280 210 282.239 210 285C210 287.761 212.239 290 215 290Z" fill="#303030"/>
<path d="M215 325C217.761 325 220 322.761 220 320C220 317.239 217.761 315 215 315C212.239 315 210 317.239 210 320C210 322.761 212.239 325 215 325Z" fill="#303030"/>
<path d="M215 360C217.761 360 220 357.761 220 355C220 352.239 217.761 350 215 350C212.239 350 210 352.239 210 355C210 357.761 212.239 360 215 360Z" fill="#303030"/>
<path d="M215 395C217.761 395 220 392.761 220 390C220 387.239 217.761 385 215 385C212.239 385 210 387.239 210 390C210 392.761 212.239 395 215 395Z" fill="#303030"/>
<path d="M250 10C252.761 10 255 7.76142 255 5C255 2.23858 252.761 0 250 0C247.239 0 245 2.23858 245 5C245 7.76142 247.239 10 250 10Z" fill="#303030"/>
<path d="M250 45C252.761 45 255 42.7614 255 40C255 37.2386 252.761 35 250 35C247.239 35 245 37.2386 245 40C245 42.7614 247.239 45 250 45Z" fill="#303030"/>
<path d="M250 80C252.761 80 255 77.7614 255 75C255 72.2386 252.761 70 250 70C247.239 70 245 72.2386 245 75C245 77.7614 247.239 80 250 80Z" fill="#303030"/>
<path d="M250 115C252.761 115 255 112.761 255 110C255 107.239 252.761 105 250 105C247.239 105 245 107.239 245 110C245 112.761 247.239 115 250 115Z" fill="#303030"/>
<path d="M250 150C252.761 150 255 147.761 255 145C255 142.239 252.761 140 250 140C247.239 140 245 142.239 245 145C245 147.761 247.239 150 250 150Z" fill="#303030"/>
<path d="M250 185C252.761 185 255 182.761 255 180C255 177.239 252.761 175 250 175C247.239 175 245 177.239 245 180C245 182.761 247.239 185 250 185Z" fill="#303030"/>
<path d="M250 220C252.761 220 255 217.761 255 215C255 212.239 252.761 210 250 210C247.239 210 245 212.239 245 215C245 217.761 247.239 220 250 220Z" fill="#303030"/>
<path d="M250 255C252.761 255 255 252.761 255 250C255 247.239 252.761 245 250 245C247.239 245 245 247.239 245 250C245 252.761 247.239 255 250 255Z" fill="#303030"/>
<path d="M250 290C252.761 290 255 287.761 255 285C255 282.239 252.761 280 250 280C247.239 280 245 282.239 245 285C245 287.761 247.239 290 250 290Z" fill="#303030"/>
<path d="M250 325C252.761 325 255 322.761 255 320C255 317.239 252.761 315 250 315C247.239 315 245 317.239 245 320C245 322.761 247.239 325 250 325Z" fill="#303030"/>
<path d="M250 360C252.761 360 255 357.761 255 355C255 352.239 252.761 350 250 350C247.239 350 245 352.239 245 355C245 357.761 247.239 360 250 360Z" fill="#303030"/>
<path d="M250 395C252.761 395 255 392.761 255 390C255 387.239 252.761 385 250 385C247.239 385 245 387.239 245 390C245 392.761 247.239 395 250 395Z" fill="#303030"/>
<path d="M285 10C287.761 10 290 7.76142 290 5C290 2.23858 287.761 0 285 0C282.239 0 280 2.23858 280 5C280 7.76142 282.239 10 285 10Z" fill="#303030"/>
<path d="M285 45C287.761 45 290 42.7614 290 40C290 37.2386 287.761 35 285 35C282.239 35 280 37.2386 280 40C280 42.7614 282.239 45 285 45Z" fill="#303030"/>
<path d="M285 80C287.761 80 290 77.7614 290 75C290 72.2386 287.761 70 285 70C282.239 70 280 72.2386 280 75C280 77.7614 282.239 80 285 80Z" fill="#303030"/>
<path d="M285 115C287.761 115 290 112.761 290 110C290 107.239 287.761 105 285 105C282.239 105 280 107.239 280 110C280 112.761 282.239 115 285 115Z" fill="#303030"/>
<path d="M285 150C287.761 150 290 147.761 290 145C290 142.239 287.761 140 285 140C282.239 140 280 142.239 280 145C280 147.761 282.239 150 285 150Z" fill="#303030"/>
<path d="M285 185C287.761 185 290 182.761 290 180C290 177.239 287.761 175 285 175C282.239 175 280 177.239 280 180C280 182.761 282.239 185 285 185Z" fill="#303030"/>
<path d="M285 220C287.761 220 290 217.761 290 215C290 212.239 287.761 210 285 210C282.239 210 280 212.239 280 215C280 217.761 282.239 220 285 220Z" fill="#303030"/>
<path d="M285 255C287.761 255 290 252.761 290 250C290 247.239 287.761 245 285 245C282.239 245 280 247.239 280 250C280 252.761 282.239 255 285 255Z" fill="#303030"/>
<path d="M285 290C287.761 290 290 287.761 290 285C290 282.239 287.761 280 285 280C282.239 280 280 282.239 280 285C280 287.761 282.239 290 285 290Z" fill="#303030"/>
<path d="M285 325C287.761 325 290 322.761 290 320C290 317.239 287.761 315 285 315C282.239 315 280 317.239 280 320C280 322.761 282.239 325 285 325Z" fill="#303030"/>
<path d="M285 360C287.761 360 290 357.761 290 355C290 352.239 287.761 350 285 350C282.239 350 280 352.239 280 355C280 357.761 282.239 360 285 360Z" fill="#303030"/>
<path d="M285 395C287.761 395 290 392.761 290 390C290 387.239 287.761 385 285 385C282.239 385 280 387.239 280 390C280 392.761 282.239 395 285 395Z" fill="#303030"/>
<path d="M320 10C322.761 10 325 7.76142 325 5C325 2.23858 322.761 0 320 0C317.239 0 315 2.23858 315 5C315 7.76142 317.239 10 320 10Z" fill="#303030"/>
<path d="M320 45C322.761 45 325 42.7614 325 40C325 37.2386 322.761 35 320 35C317.239 35 315 37.2386 315 40C315 42.7614 317.239 45 320 45Z" fill="#303030"/>
<path d="M320 80C322.761 80 325 77.7614 325 75C325 72.2386 322.761 70 320 70C317.239 70 315 72.2386 315 75C315 77.7614 317.239 80 320 80Z" fill="#303030"/>
<path d="M320 115C322.761 115 325 112.761 325 110C325 107.239 322.761 105 320 105C317.239 105 315 107.239 315 110C315 112.761 317.239 115 320 115Z" fill="#303030"/>
<path d="M320 150C322.761 150 325 147.761 325 145C325 142.239 322.761 140 320 140C317.239 140 315 142.239 315 145C315 147.761 317.239 150 320 150Z" fill="#303030"/>
<path d="M320 185C322.761 185 325 182.761 325 180C325 177.239 322.761 175 320 175C317.239 175 315 177.239 315 180C315 182.761 317.239 185 320 185Z" fill="#303030"/>
<path d="M320 220C322.761 220 325 217.761 325 215C325 212.239 322.761 210 320 210C317.239 210 315 212.239 315 215C315 217.761 317.239 220 320 220Z" fill="#303030"/>
<path d="M320 255C322.761 255 325 252.761 325 250C325 247.239 322.761 245 320 245C317.239 245 315 247.239 315 250C315 252.761 317.239 255 320 255Z" fill="#303030"/>
<path d="M320 290C322.761 290 325 287.761 325 285C325 282.239 322.761 280 320 280C317.239 280 315 282.239 315 285C315 287.761 317.239 290 320 290Z" fill="#303030"/>
<path d="M320 325C322.761 325 325 322.761 325 320C325 317.239 322.761 315 320 315C317.239 315 315 317.239 315 320C315 322.761 317.239 325 320 325Z" fill="#303030"/>
<path d="M320 360C322.761 360 325 357.761 325 355C325 352.239 322.761 350 320 350C317.239 350 315 352.239 315 355C315 357.761 317.239 360 320 360Z" fill="#303030"/>
<path d="M320 395C322.761 395 325 392.761 325 390C325 387.239 322.761 385 320 385C317.239 385 315 387.239 315 390C315 392.761 317.239 395 320 395Z" fill="#303030"/>
<path d="M355 10C357.761 10 360 7.76142 360 5C360 2.23858 357.761 0 355 0C352.239 0 350 2.23858 350 5C350 7.76142 352.239 10 355 10Z" fill="#303030"/>
<path d="M355 45C357.761 45 360 42.7614 360 40C360 37.2386 357.761 35 355 35C352.239 35 350 37.2386 350 40C350 42.7614 352.239 45 355 45Z" fill="#303030"/>
<path d="M355 80C357.761 80 360 77.7614 360 75C360 72.2386 357.761 70 355 70C352.239 70 350 72.2386 350 75C350 77.7614 352.239 80 355 80Z" fill="#303030"/>
<path d="M355 115C357.761 115 360 112.761 360 110C360 107.239 357.761 105 355 105C352.239 105 350 107.239 350 110C350 112.761 352.239 115 355 115Z" fill="#303030"/>
<path d="M355 150C357.761 150 360 147.761 360 145C360 142.239 357.761 140 355 140C352.239 140 350 142.239 350 145C350 147.761 352.239 150 355 150Z" fill="#303030"/>
<path d="M355 185C357.761 185 360 182.761 360 180C360 177.239 357.761 175 355 175C352.239 175 350 177.239 350 180C350 182.761 352.239 185 355 185Z" fill="#303030"/>
<path d="M355 220C357.761 220 360 217.761 360 215C360 212.239 357.761 210 355 210C352.239 210 350 212.239 350 215C350 217.761 352.239 220 355 220Z" fill="#303030"/>
<path d="M355 255C357.761 255 360 252.761 360 250C360 247.239 357.761 245 355 245C352.239 245 350 247.239 350 250C350 252.761 352.239 255 355 255Z" fill="#303030"/>
<path d="M355 290C357.761 290 360 287.761 360 285C360 282.239 357.761 280 355 280C352.239 280 350 282.239 350 285C350 287.761 352.239 290 355 290Z" fill="#303030"/>
<path d="M355 325C357.761 325 360 322.761 360 320C360 317.239 357.761 315 355 315C352.239 315 350 317.239 350 320C350 322.761 352.239 325 355 325Z" fill="#303030"/>
<path d="M355 360C357.761 360 360 357.761 360 355C360 352.239 357.761 350 355 350C352.239 350 350 352.239 350 355C350 357.761 352.239 360 355 360Z" fill="#303030"/>
<path d="M355 395C357.761 395 360 392.761 360 390C360 387.239 357.761 385 355 385C352.239 385 350 387.239 350 390C350 392.761 352.239 395 355 395Z" fill="#303030"/>
</svg>
